<?xml version="1.0" encoding="UTF-8"?>
<svg xmlns="http://www.w3.org/2000/svg" version="1.1" viewBox="0 0 278.11 200">
  <defs>
    <style>
      .cls-1 {
        fill: #010101;
      }

      .cls-1, .cls-2 {
        stroke-width: 0px;
      }

      .cls-2 {
        fill: #000;
      }

      .cls-3 {
        display: none;
      }
    </style>
  </defs>
  <g id="Layer_1" data-name="Layer 1">
    <path class="cls-2" d="M192.28,89.79c-29.01-17.23-76.86-18.81-104.55-10.41-4.45,1.35-9.15-1.16-10.5-5.61-1.35-4.45,1.16-9.15,5.61-10.5,31.79-9.65,84.63-7.79,118.03,12.04,4,2.38,5.31,7.54,2.94,11.53-2.37,4-7.54,5.32-11.53,2.94M191.33,115.3c-2.04,3.3-6.35,4.34-9.65,2.31-24.18-14.86-61.06-19.17-89.67-10.49-3.71,1.12-7.63-.97-8.76-4.67-1.12-3.71.97-7.62,4.68-8.75,32.68-9.92,73.32-5.12,101.09,11.95,3.3,2.03,4.34,6.35,2.31,9.65M180.32,139.81c-1.61,2.64-5.06,3.48-7.7,1.87,0,0,0,0-.01,0-21.13-12.92-47.73-15.83-79.06-8.68-3.02.69-6.02-1.2-6.71-4.21,0,0,0,0,0,0-.69-3.01,1.19-6.02,4.2-6.71,0,0,0,0,.01,0,34.28-7.84,63.68-4.46,87.4,10.03,2.64,1.61,3.48,5.07,1.86,7.71,0,0,0,0,0,0M139.05,10.01c-49.7,0-89.99,40.29-89.99,89.99s40.29,89.99,89.99,89.99,89.99-40.29,89.99-89.99S188.75,10.01,139.05,10.01"/>
  </g>
  <g id="Layer_2" data-name="Layer 2" class="cls-3">
    <path class="cls-1" d="M92.33,13.73c-21.94,0-39.64,17.7-39.64,39.64v93.45c0,21.94,17.7,39.64,39.64,39.64h93.45c21.98,0,39.64-17.7,39.64-39.64V53.37c0-21.94-17.7-39.64-39.64-39.64h-93.45ZM138.9,29.43c39.02,0,70.66,31.64,70.66,70.66s-31.64,70.66-70.66,70.66-70.66-31.64-70.66-70.66S99.88,29.43,138.9,29.43ZM138.9,37.49c-34.64,0-62.66,28.09-62.66,62.69s28.02,62.74,62.66,62.74,62.69-28.08,62.69-62.69-28.08-62.74-62.69-62.74ZM165.09,60.84c2.06-.14,3.25,1.09,3.25,3.14-.03,61.53.14,55.92-.37,58.15-1.15,4.91-4.87,7.65-9.85,8.59-4.37.79-8.01,1.01-11.5-1.81-4.26-3.6-4.33-9.52-.51-13.26,3.03-2.88,7.33-3.46,13.71-4.62,1.08-.18,2.01-.43,2.78-1.33,1.15-1.3.8,1.56.8-26.85,0-2.02-.98-2.57-3.04-2.21-1.44.25-33.14,6.16-33.14,6.16-1.81.4-2.42.93-2.42,2.99,0,41.86.18,37.68-.43,40.45-.75,3.24-2.74,5.69-5.37,7.05-2.99,1.66-8.44,2.39-11.32,1.89-7.72-1.44-10.43-10.35-5.2-15.47,3.03-2.88,7.33-3.46,13.71-4.62,1.08-.18,2.01-.43,2.78-1.33,1.81-2.06.32-43.52.94-45.93.14-.93.54-1.72,1.26-2.3.75-.61,2.09-.98,2.42-.98,36.42-6.85,40.85-7.71,41.5-7.71Z"/>
  </g>
  <g id="Layer_3" data-name="Layer 3" class="cls-3">
    <path class="cls-1" d="M114.77,134.82v-69.59l61.18,34.8-61.18,34.79ZM250.85,43.32c-2.76-10.15-10.57-18.01-20.49-20.78l-.21-.05c-24.92-3.17-53.74-4.98-83-4.98-2.97,0-5.94.02-8.9.05h.45c-2.51-.04-5.47-.06-8.44-.06-29.25,0-58.09,1.81-86.4,5.32l3.39-.34c-10.12,2.83-17.93,10.68-20.64,20.63l-.05.2c-3.12,16.46-4.9,35.4-4.9,54.76,0,.69,0,1.37,0,2.05v-.11c0,.58,0,1.26,0,1.95,0,19.36,1.79,38.29,5.2,56.65l-.3-1.9c2.76,10.15,10.57,18.01,20.49,20.78l.21.05c24.92,3.17,53.74,4.98,83,4.98,2.97,0,5.93-.02,8.9-.05h-.45c2.51.04,5.48.06,8.44.06,29.26,0,58.09-1.81,86.4-5.32l-3.39.34c10.13-2.83,17.94-10.68,20.65-20.63l.05-.2c3.11-16.46,4.89-35.4,4.89-54.75,0-.69,0-1.37,0-2.05v.1c0-.58,0-1.26,0-1.95,0-19.36-1.79-38.29-5.2-56.65l.3,1.9h0Z"/>
  </g>
</svg>