<?xml version="1.0" encoding="UTF-8"?>
<svg id="Layer_1" data-name="Layer 1" xmlns="http://www.w3.org/2000/svg" xmlns:xlink="http://www.w3.org/1999/xlink" version="1.1" viewBox="0 0 194.78 131.73">
  <defs>
    <style>
      .cls-1 {
        fill: url(#linear-gradient);
      }

      .cls-1, .cls-2 {
        stroke-width: 0px;
      }

      .cls-2 {
        fill: url(#linear-gradient-2);
      }
    </style>
    <linearGradient id="linear-gradient" x1="599.1" y1="2118.29" x2="599.1" y2="2123" gradientTransform="translate(-504.94 -2109.09)" gradientUnits="userSpaceOnUse">
      <stop offset="0" stop-color="#db4f00"/>
      <stop offset=".33" stop-color="#eb7900"/>
      <stop offset="1" stop-color="#db4f00"/>
    </linearGradient>
    <linearGradient id="linear-gradient-2" x1="599.1" y1="2116.2" x2="599.1" y2="2228.08" gradientTransform="translate(-504.94 -2109.09)" gradientUnits="userSpaceOnUse">
      <stop offset="0" stop-color="#e86e00"/>
      <stop offset=".05" stop-color="#f18800"/>
      <stop offset=".11" stop-color="#f89e00"/>
      <stop offset=".16" stop-color="#fdac00"/>
      <stop offset=".21" stop-color="#ffb100"/>
      <stop offset="1" stop-color="#e86e00"/>
    </linearGradient>
  </defs>
  <path class="cls-1" d="M122.08,8.93h-55.82c-1.06,0-3.88.76-4.57,5.36h64.97c-.69-4.6-3.51-5.36-4.57-5.36Z"/>
  <path class="cls-2" d="M113.54,110.87l-15.79,10.37c-2.19,1.44-4.98,1.44-7.17,0l-15.79-10.37c-1.91-1.26-3.07-3.43-3.07-5.76V18.32c0-9.39-5.47-9.39-5.47-9.39h55.82s-5.47,0-5.47,9.39v86.79c0,2.33-1.16,4.5-3.07,5.76Z"/>
</svg>